<svg xmlns="http://www.w3.org/2000/svg" xmlns:xlink="http://www.w3.org/1999/xlink" width="500" zoomAndPan="magnify" viewBox="0 0 375 374.999991" height="500" preserveAspectRatio="xMidYMid meet" version="1.2"><defs><clipPath id="372d3ce1c8"><path d="M 2.828125 2.828125 L 372.171875 2.828125 L 372.171875 372.171875 L 2.828125 372.171875 Z M 2.828125 2.828125 "/></clipPath><clipPath id="043989274b"><path d="M 187.5 2.828125 C 85.507812 2.828125 2.828125 85.507812 2.828125 187.5 C 2.828125 289.492188 85.507812 372.171875 187.5 372.171875 C 289.492188 372.171875 372.171875 289.492188 372.171875 187.5 C 372.171875 85.507812 289.492188 2.828125 187.5 2.828125 Z M 187.5 2.828125 "/></clipPath><clipPath id="caffcbd112"><path d="M 44.941406 104 L 329 104 L 329 332 L 44.941406 332 Z M 44.941406 104 "/></clipPath></defs><g id="316edd732f"><g clip-rule="nonzero" clip-path="url(#372d3ce1c8)"><g clip-rule="nonzero" clip-path="url(#043989274b)"><path style=" stroke:none;fill-rule:nonzero;fill:#ffffff;fill-opacity:1;" d="M 2.828125 2.828125 L 372.171875 2.828125 L 372.171875 372.171875 L 2.828125 372.171875 Z M 2.828125 2.828125 "/></g></g><path style=" stroke:none;fill-rule:nonzero;fill:#360c8a;fill-opacity:1;" d="M 205.59375 131.6875 L 294.386719 89.363281 L 203.40625 48.078125 C 191.546875 42.664062 177.898438 42.78125 166.035156 48.308594 L 78.339844 89.308594 L 167.128906 131.6875 C 179.339844 137.503906 193.445312 137.503906 205.59375 131.6875 Z M 205.59375 131.6875 "/><g clip-rule="nonzero" clip-path="url(#caffcbd112)"><path style=" stroke:none;fill-rule:nonzero;fill:#360c8a;fill-opacity:1;" d="M 311.316406 243.167969 C 309.242188 242.878906 307.113281 243.226562 305.15625 243.972656 L 254.597656 263.953125 L 204.386719 283.820312 C 193.042969 288.3125 180.375 288.3125 169.03125 283.761719 L 95.09375 254.164062 C 89.914062 251.921875 84.613281 249.789062 79.261719 247.832031 C 78.914062 247.371094 78.683594 247.027344 78.339844 246.566406 C 78.222656 237.925781 78.339844 229.289062 78.222656 220.652344 C 78.453125 221.402344 81.332031 222.4375 84.210938 223.300781 L 142.945312 249.214844 C 145.191406 250.25 147.496094 251.230469 149.742188 252.207031 L 154 254.109375 L 154 253.992188 C 161.429688 256.988281 168.972656 259.636719 176.804688 261.59375 C 189.472656 264.761719 202.082031 260.097656 213.945312 256.007812 C 247.285156 244.320312 277.574219 224.972656 310.339844 211.84375 C 318.226562 208.675781 326.863281 203.550781 328.359375 194.453125 C 329.398438 189.210938 327.613281 184.320312 324.445312 180.460938 C 324.445312 180.402344 324.386719 180.402344 324.332031 180.34375 C 316.097656 169.230469 304.984375 172.398438 302.160156 173.433594 C 302.046875 173.492188 301.929688 173.492188 301.816406 173.550781 C 301.585938 173.609375 301.46875 173.664062 301.46875 173.664062 C 266.34375 189.617188 231.910156 207.523438 195.980469 221.34375 C 189.703125 223.417969 182.964844 222.207031 176.632812 221.054688 C 142.542969 209.828125 111.621094 189.789062 77.53125 178.386719 C 77.820312 169 78.28125 159.617188 78.164062 150.230469 C 81.5625 151.554688 84.789062 153.222656 88.070312 154.777344 C 103.273438 162.207031 118.644531 169.175781 134.019531 176.140625 C 148.011719 182.535156 162.292969 190.941406 177.957031 192.09375 C 207.839844 194.28125 232.832031 178.273438 258.742188 166.121094 C 273.714844 159.097656 289.207031 153.050781 304.003906 145.621094 C 313.332031 141.363281 326.289062 137.675781 328.304688 125.816406 C 328.9375 121.839844 328.074219 118.097656 326.289062 114.816406 C 321.507812 105.890625 310.683594 102.089844 301.007812 105.144531 C 292.71875 107.792969 285.175781 112.28125 277.226562 115.621094 C 268.074219 119.480469 259.089844 123.914062 249.992188 128.058594 C 237.839844 133.820312 225.578125 139.289062 213.371094 144.875 C 207.4375 147.582031 201.449219 151.035156 195.289062 152.878906 C 189.011719 154.722656 182.851562 153.742188 176.574219 152.359375 C 144.386719 140.09375 113.464844 124.261719 82.253906 109.578125 C 76.496094 105.777344 68.722656 103.589844 61.582031 104.105469 C 52.082031 104.855469 44.941406 113.089844 44.941406 122.648438 L 45.917969 256.125 C 45.976562 264.242188 50.296875 271.726562 57.320312 275.757812 C 65.613281 280.539062 77.820312 287.390625 91.8125 294.703125 C 91.871094 294.761719 91.984375 294.820312 92.101562 294.820312 C 101.542969 299.367188 111.21875 303.515625 120.660156 308.121094 C 130.335938 312.667969 139.953125 317.390625 149.742188 321.652344 C 155.902344 324.070312 162.179688 326.257812 168.511719 328.160156 C 174.269531 329.886719 180.375 331.84375 186.476562 331.960938 C 194.308594 332.074219 202.027344 329.3125 209.109375 326.257812 C 215.152344 323.609375 221.085938 320.847656 227.074219 318.199219 C 227.132812 318.199219 227.1875 318.140625 227.246094 318.140625 C 233.523438 315.316406 239.855469 312.496094 246.132812 309.675781 C 253.101562 306.566406 260.011719 303.457031 266.976562 300.347656 C 273.601562 297.351562 280.28125 294.414062 286.902344 291.421875 C 292.257812 289.003906 297.667969 286.640625 303.023438 284.222656 C 306.191406 282.84375 309.300781 281.402344 312.46875 280.019531 C 312.871094 279.847656 313.332031 279.617188 313.734375 279.445312 L 314.597656 279.042969 L 314.714844 279.15625 C 321.335938 275.703125 327.902344 270.921875 328.820312 263.148438 C 329.800781 250.882812 321.394531 244.605469 311.316406 243.167969 Z M 311.316406 243.167969 "/></g></g></svg>