<svg xmlns="http://www.w3.org/2000/svg" xmlns:xlink="http://www.w3.org/1999/xlink" width="500" zoomAndPan="magnify" viewBox="0 0 375 374.999991" height="500" preserveAspectRatio="xMidYMid meet" version="1.0"><defs><clipPath id="ace921a1b9"><path d="M 301 94.261719 L 356.808594 94.261719 L 356.808594 211.765625 L 301 211.765625 Z M 301 94.261719 " clip-rule="nonzero"/></clipPath><clipPath id="04b881f132"><path d="M 211.277344 106.277344 L 310.613281 23.3125 L 417.667969 151.488281 L 318.332031 234.453125 Z M 211.277344 106.277344 " clip-rule="nonzero"/></clipPath><clipPath id="bac78f68ff"><path d="M 211.277344 106.277344 L 310.613281 23.3125 L 417.667969 151.488281 L 318.332031 234.453125 Z M 211.277344 106.277344 " clip-rule="nonzero"/></clipPath><clipPath id="0ce9309adc"><path d="M 211.277344 106.277344 L 310.613281 23.3125 L 417.667969 151.488281 L 318.332031 234.453125 Z M 211.277344 106.277344 " clip-rule="nonzero"/></clipPath><clipPath id="b56ae7faa1"><path d="M 237.46875 95.179688 L 309.992188 95.179688 L 309.992188 123 L 237.46875 123 Z M 237.46875 95.179688 " clip-rule="nonzero"/></clipPath><clipPath id="9e420e2eae"><path d="M 211.277344 106.277344 L 310.613281 23.3125 L 417.667969 151.488281 L 318.332031 234.453125 Z M 211.277344 106.277344 " clip-rule="nonzero"/></clipPath><clipPath id="bd5baeddb5"><path d="M 211.277344 106.277344 L 310.613281 23.3125 L 417.667969 151.488281 L 318.332031 234.453125 Z M 211.277344 106.277344 " clip-rule="nonzero"/></clipPath><clipPath id="1ef1e31820"><path d="M 211.277344 106.277344 L 310.613281 23.3125 L 417.667969 151.488281 L 318.332031 234.453125 Z M 211.277344 106.277344 " clip-rule="nonzero"/></clipPath><clipPath id="97a341e79c"><path d="M 19 162.195312 L 74 162.195312 L 74 279.699219 L 19 279.699219 Z M 19 162.195312 " clip-rule="nonzero"/></clipPath><clipPath id="26f937f145"><path d="M -41.480469 221.460938 L 57.371094 137.917969 L 165.167969 265.464844 L 66.316406 349.011719 Z M -41.480469 221.460938 " clip-rule="nonzero"/></clipPath><clipPath id="abc619c64f"><path d="M -41.480469 221.460938 L 57.371094 137.917969 L 165.167969 265.464844 L 66.316406 349.011719 Z M -41.480469 221.460938 " clip-rule="nonzero"/></clipPath><clipPath id="b9a2c38195"><path d="M -41.480469 221.460938 L 57.371094 137.917969 L 165.167969 265.464844 L 66.316406 349.011719 Z M -41.480469 221.460938 " clip-rule="nonzero"/></clipPath><clipPath id="0588048920"><path d="M 65 250.324219 L 138.328125 250.324219 L 138.328125 278.78125 L 65 278.78125 Z M 65 250.324219 " clip-rule="nonzero"/></clipPath><clipPath id="c14574d192"><path d="M -41.480469 221.460938 L 57.371094 137.917969 L 165.167969 265.464844 L 66.316406 349.011719 Z M -41.480469 221.460938 " clip-rule="nonzero"/></clipPath><clipPath id="d07082bcde"><path d="M -41.480469 221.460938 L 57.371094 137.917969 L 165.167969 265.464844 L 66.316406 349.011719 Z M -41.480469 221.460938 " clip-rule="nonzero"/></clipPath><clipPath id="60c57d9810"><path d="M -41.480469 221.460938 L 57.371094 137.917969 L 165.167969 265.464844 L 66.316406 349.011719 Z M -41.480469 221.460938 " clip-rule="nonzero"/></clipPath></defs><rect x="-37.5" width="450" fill="#ffffff" y="-37.499999" height="449.999989" fill-opacity="1"/><rect x="-37.5" width="450" fill="#ffffff" y="-37.499999" height="449.999989" fill-opacity="1"/><path fill="#ff00ff" d="M 115.289062 246.007812 L 80.347656 246.007812 L 80.347656 128.214844 L 111.933594 128.214844 C 124.589844 128.214844 134.253906 131.6875 140.921875 138.628906 C 147.582031 145.574219 150.917969 154.816406 150.917969 166.355469 L 150.917969 212.398438 C 150.917969 234.804688 139.042969 246.007812 115.289062 246.007812 Z M 132.429688 214.078125 L 132.429688 164.679688 C 132.429688 158.519531 130.886719 154.015625 127.808594 151.152344 C 124.730469 148.292969 119.996094 146.863281 113.609375 146.863281 L 98.820312 146.863281 L 98.820312 229.039062 L 112.605469 229.039062 C 115.40625 229.039062 117.757812 228.902344 119.664062 228.621094 C 121.5625 228.335938 123.609375 227.746094 125.789062 226.859375 C 127.976562 225.960938 129.632812 224.449219 130.75 222.324219 C 131.871094 220.195312 132.429688 217.445312 132.429688 214.078125 Z M 132.429688 214.078125 " fill-opacity="1" fill-rule="nonzero"/><path fill="#ff00ff" d="M 274.921875 246.007812 L 253.25 246.007812 L 223.847656 128.390625 L 244.671875 128.390625 L 264.007812 209.71875 L 282.828125 128.390625 L 304.171875 128.390625 Z M 274.921875 246.007812 " fill-opacity="1" fill-rule="nonzero"/><path fill="#00ffff" d="M 111.09375 246.226562 L 76.152344 246.226562 L 76.152344 128.4375 L 107.738281 128.4375 C 120.394531 128.4375 130.058594 131.90625 136.726562 138.851562 C 143.386719 145.792969 146.722656 155.035156 146.722656 166.578125 L 146.722656 212.621094 C 146.722656 235.023438 134.847656 246.226562 111.09375 246.226562 Z M 128.234375 214.296875 L 128.234375 164.898438 C 128.234375 158.742188 126.691406 154.234375 123.617188 151.371094 C 120.535156 148.515625 115.800781 147.082031 109.414062 147.082031 L 94.625 147.082031 L 94.625 229.257812 L 108.410156 229.257812 C 111.210938 229.257812 113.5625 229.121094 115.46875 228.84375 C 117.367188 228.554688 119.414062 227.96875 121.59375 227.078125 C 123.78125 226.183594 125.4375 224.667969 126.554688 222.546875 C 127.675781 220.414062 128.234375 217.664062 128.234375 214.296875 Z M 128.234375 214.296875 " fill-opacity="1" fill-rule="nonzero"/><path fill="#00ffff" d="M 270.730469 246.226562 L 249.054688 246.226562 L 219.652344 128.609375 L 240.476562 128.609375 L 259.8125 209.9375 L 278.632812 128.609375 L 299.976562 128.609375 Z M 270.730469 246.226562 " fill-opacity="1" fill-rule="nonzero"/><path fill="#402e7a" d="M 113.191406 246.117188 L 78.25 246.117188 L 78.25 128.328125 L 109.835938 128.328125 C 122.492188 128.328125 132.15625 131.796875 138.824219 138.738281 C 145.484375 145.683594 148.820312 154.925781 148.820312 166.464844 L 148.820312 212.511719 C 148.820312 234.914062 136.945312 246.117188 113.191406 246.117188 Z M 130.332031 214.1875 L 130.332031 164.789062 C 130.332031 158.632812 128.789062 154.125 125.714844 151.261719 C 122.632812 148.402344 117.898438 146.972656 111.511719 146.972656 L 96.722656 146.972656 L 96.722656 229.148438 L 110.507812 229.148438 C 113.308594 229.148438 115.660156 229.011719 117.566406 228.734375 C 119.464844 228.445312 121.511719 227.859375 123.691406 226.96875 C 125.878906 226.070312 127.535156 224.558594 128.652344 222.4375 C 129.773438 220.304688 130.332031 217.554688 130.332031 214.1875 Z M 130.332031 214.1875 " fill-opacity="1" fill-rule="nonzero"/><path fill="#402e7a" d="M 272.828125 246.117188 L 251.152344 246.117188 L 221.75 128.5 L 242.574219 128.5 L 261.910156 209.828125 L 280.730469 128.5 L 302.074219 128.5 Z M 272.828125 246.117188 " fill-opacity="1" fill-rule="nonzero"/><path fill="#ff00ff" d="M 197.09375 145.765625 L 195.917969 227.265625 C 197.929688 227.265625 199.921875 227.296875 201.882812 227.351562 C 203.839844 227.410156 205.773438 227.4375 207.679688 227.4375 L 207.519531 243.574219 C 201.246094 243.574219 195.085938 243.519531 189.03125 243.402344 C 182.976562 243.289062 176.984375 243.457031 171.058594 243.90625 L 169.882812 227.941406 C 171.554688 227.722656 173.203125 227.582031 174.832031 227.523438 C 176.457031 227.46875 178.109375 227.4375 179.792969 227.4375 L 180.96875 145.765625 C 179.285156 145.878906 177.632812 145.964844 176.007812 146.023438 C 174.378906 146.082031 172.730469 146.167969 171.058594 146.28125 L 169.882812 130.144531 C 176.371094 129.695312 182.753906 129.5 189.03125 129.558594 C 195.304688 129.613281 201.515625 129.699219 207.679688 129.816406 L 207.519531 145.9375 C 205.835938 145.9375 204.09375 145.910156 202.300781 145.851562 C 200.507812 145.792969 198.773438 145.765625 197.09375 145.765625 Z M 197.09375 145.765625 " fill-opacity="1" fill-rule="nonzero"/><path fill="#00ffff" d="M 192.898438 145.984375 L 191.722656 227.488281 C 193.734375 227.488281 195.726562 227.515625 197.6875 227.574219 C 199.644531 227.628906 201.578125 227.660156 203.484375 227.660156 L 203.324219 243.796875 C 197.050781 243.796875 190.890625 243.738281 184.835938 243.625 C 178.78125 243.507812 172.789062 243.675781 166.863281 244.125 L 165.6875 228.160156 C 167.359375 227.941406 169.007812 227.800781 170.636719 227.746094 C 172.261719 227.6875 173.914062 227.660156 175.597656 227.660156 L 176.773438 145.984375 C 175.089844 146.101562 173.4375 146.1875 171.8125 146.242188 C 170.183594 146.300781 168.535156 146.386719 166.863281 146.5 L 165.6875 130.363281 C 172.175781 129.917969 178.558594 129.71875 184.835938 129.777344 C 191.109375 129.835938 197.320312 129.921875 203.484375 130.035156 L 203.324219 146.15625 C 201.640625 146.15625 199.898438 146.128906 198.105469 146.070312 C 196.3125 146.015625 194.578125 145.984375 192.898438 145.984375 Z M 192.898438 145.984375 " fill-opacity="1" fill-rule="nonzero"/><path fill="#402e7a" d="M 194.996094 145.875 L 193.820312 227.375 C 195.832031 227.375 197.824219 227.40625 199.785156 227.460938 C 201.742188 227.519531 203.675781 227.550781 205.582031 227.550781 L 205.421875 243.683594 C 199.148438 243.683594 192.988281 243.628906 186.933594 243.511719 C 180.878906 243.398438 174.886719 243.566406 168.960938 244.015625 L 167.785156 228.050781 C 169.457031 227.832031 171.105469 227.691406 172.734375 227.636719 C 174.359375 227.578125 176.011719 227.550781 177.695312 227.550781 L 178.871094 145.875 C 177.1875 145.992188 175.535156 146.078125 173.910156 146.132812 C 172.28125 146.191406 170.632812 146.277344 168.960938 146.390625 L 167.785156 130.253906 C 174.273438 129.808594 180.65625 129.609375 186.933594 129.667969 C 193.207031 129.722656 199.417969 129.808594 205.582031 129.925781 L 205.421875 146.046875 C 203.738281 146.046875 201.996094 146.019531 200.203125 145.960938 C 198.410156 145.902344 196.675781 145.875 194.996094 145.875 Z M 194.996094 145.875 " fill-opacity="1" fill-rule="nonzero"/><g clip-path="url(#ace921a1b9)"><g clip-path="url(#04b881f132)"><g clip-path="url(#bac78f68ff)"><g clip-path="url(#0ce9309adc)"><path fill="#009bfe" d="M 333.433594 211.070312 C 333.691406 210.320312 336.175781 197.234375 336.308594 196.542969 L 339.132812 182.019531 C 340.425781 174.917969 342.015625 167.414062 343.375 160.277344 C 343.839844 157.804688 344.308594 155.441406 344.789062 152.976562 C 345.746094 148.082031 346.652344 143.378906 347.617188 138.457031 L 350.464844 123.933594 C 350.730469 122.691406 350.890625 121.535156 351.167969 120.316406 C 351.894531 117.082031 352.546875 112.554688 353.28125 109.410156 C 353.421875 108.808594 353.527344 108.191406 353.648438 107.601562 L 355.402344 98.578125 C 355.507812 97.976562 355.605469 97.375 355.75 96.769531 L 356.125 94.921875 C 355.492188 94.734375 351.1875 94.921875 350.367188 94.917969 C 348.425781 94.902344 346.503906 94.984375 344.539062 94.988281 C 337.832031 95.007812 330.882812 95.226562 324.148438 95.257812 C 321.941406 95.265625 311.226562 95.324219 309.625 95.464844 C 311.777344 98.402344 312.613281 98.535156 313.683594 102.851562 C 314.3125 105.402344 313.996094 107.496094 313.511719 109.953125 L 311.484375 120.339844 C 311.242188 121.5625 311.023438 122.628906 310.796875 123.875 L 309.445312 130.800781 C 309.179688 131.988281 309.054688 133.070312 308.785156 134.261719 C 308.042969 137.546875 307.441406 141.71875 306.722656 144.796875 C 306.449219 145.953125 306.308594 147.074219 306.058594 148.253906 C 305.808594 149.441406 305.597656 150.566406 305.371094 151.792969 L 304.019531 158.710938 C 303.355469 161.65625 302.585938 166.046875 301.976562 169.171875 C 301.089844 173.730469 300.6875 171.867188 304.566406 176.511719 Z M 333.433594 211.070312 " fill-opacity="1" fill-rule="evenodd"/></g></g></g></g><g clip-path="url(#b56ae7faa1)"><g clip-path="url(#9e420e2eae)"><g clip-path="url(#bd5baeddb5)"><g clip-path="url(#1ef1e31820)"><path fill="#3a51d6" d="M 259.652344 122.734375 C 261.714844 122.601562 269.414062 122.558594 271.4375 122.558594 C 277.289062 122.554688 283.292969 122.339844 289.144531 122.324219 C 292.960938 122.308594 297.167969 122.144531 300.945312 122.167969 C 301.917969 122.175781 302.984375 122.125 303.9375 122.117188 L 306.898438 122.046875 L 309.679688 107.855469 C 309.792969 106.816406 309.929688 106.140625 309.824219 104.960938 C 309.640625 102.984375 308.832031 100.726562 307.117188 98.910156 C 305.371094 97.058594 303.039062 95.914062 300.992188 95.675781 C 299.1875 95.46875 292.371094 95.722656 290.039062 95.722656 C 288.046875 95.722656 286.183594 95.78125 284.214844 95.792969 L 243.511719 96.328125 C 242.398438 96.375 238.375 96.308594 237.691406 96.4375 Z M 259.652344 122.734375 " fill-opacity="1" fill-rule="evenodd"/></g></g></g></g><g clip-path="url(#97a341e79c)"><g clip-path="url(#26f937f145)"><g clip-path="url(#abc619c64f)"><g clip-path="url(#b9a2c38195)"><path fill="#ff0000" d="M 19.367188 279.105469 C 19.90625 279.328125 24.304688 279.109375 25.214844 279.101562 C 26.222656 279.09375 27.101562 279.070312 28.082031 279.054688 L 42.671875 278.773438 C 44.621094 278.753906 46.554688 278.726562 48.496094 278.65625 L 60.132812 278.4375 C 61.363281 278.410156 65.113281 278.40625 66.078125 278.277344 C 62.953125 275.011719 61.664062 271.640625 61.589844 268.179688 C 61.546875 265.929688 62.171875 263.308594 62.609375 260.945312 C 62.761719 260.117188 62.890625 259.332031 63.074219 258.515625 L 73.066406 205.546875 C 73.148438 205.109375 74.046875 201.015625 73.859375 200.683594 L 41.464844 162.359375 L 33.199219 206.078125 C 32.703125 208.503906 32.332031 210.949219 31.804688 213.371094 L 27.671875 235.308594 C 26.46875 242.320312 24.855469 250.066406 23.554688 257.167969 C 22.484375 263.015625 21.082031 269.660156 20.109375 275.425781 Z M 19.367188 279.105469 " fill-opacity="1" fill-rule="evenodd"/></g></g></g></g><g clip-path="url(#0588048920)"><g clip-path="url(#c14574d192)"><g clip-path="url(#d07082bcde)"><g clip-path="url(#60c57d9810)"><path fill="#db0000" d="M 138.289062 276.914062 L 116.070312 250.621094 C 115.019531 250.832031 95.933594 250.90625 92.394531 251.101562 L 86.496094 251.222656 C 85.460938 251.234375 84.550781 251.261719 83.542969 251.273438 C 82.484375 251.28125 81.527344 251.285156 80.515625 251.332031 L 70.152344 251.519531 C 69.714844 251.519531 69.011719 251.511719 68.648438 251.585938 L 68.089844 254.390625 C 67.492188 257.875 65.566406 265.945312 65.792969 268.765625 C 65.953125 270.734375 66.816406 272.972656 68.539062 274.824219 C 72.28125 278.847656 76.257812 278.054688 79.902344 278.054688 L 132.363281 277.0625 C 133.941406 276.988281 136.871094 277.070312 138.289062 276.914062 Z M 138.289062 276.914062 " fill-opacity="1" fill-rule="evenodd"/></g></g></g></g></svg>