<svg xmlns="http://www.w3.org/2000/svg" xmlns:xlink="http://www.w3.org/1999/xlink" width="500" zoomAndPan="magnify" viewBox="0 0 375 374.999991" height="500" preserveAspectRatio="xMidYMid meet" version="1.0"><defs><clipPath id="476f63a035"><path d="M 27.3125 5 L 347.5625 5 L 347.5625 369 L 27.3125 369 Z M 27.3125 5 " clip-rule="nonzero"/></clipPath></defs><g clip-path="url(#476f63a035)"><path fill="#e44d26" d="M 56.386719 332.652344 L 27.222656 5.742188 L 347.65625 5.742188 L 318.46875 332.605469 L 187.234375 368.953125 Z M 56.386719 332.652344 " fill-opacity="1" fill-rule="nonzero"/></g><path fill="#f16529" d="M 293.472656 311.789062 L 318.421875 32.472656 L 187.4375 32.472656 L 187.4375 341.175781 Z M 293.472656 311.789062 " fill-opacity="1" fill-rule="nonzero"/><path fill="#ebebeb" d="M 187.304688 72.5625 L 86.84375 72.5625 L 97.667969 193.808594 L 187.4375 193.808594 L 187.4375 153.71875 L 134.359375 153.71875 L 130.691406 112.664062 L 187.4375 112.664062 L 187.4375 72.5625 Z M 187.4375 257.714844 L 187.269531 257.761719 L 142.59375 245.707031 L 139.753906 213.730469 L 99.460938 213.730469 L 105.082031 276.683594 L 187.257812 299.382812 L 187.4375 299.328125 Z M 187.4375 257.714844 " fill-opacity="1" fill-rule="nonzero"/><path fill="#ffffff" d="M 187.304688 193.808594 L 236.703125 193.808594 L 232.160156 245.796875 L 187.417969 257.863281 L 187.417969 299.574219 L 269.660156 276.796875 L 280.675781 153.695312 L 187.4375 153.695312 Z M 286.832031 83.324219 L 287.785156 72.5625 L 187.28125 72.5625 L 187.28125 112.652344 L 284.171875 112.652344 L 284.96875 103.640625 Z M 286.832031 83.324219 " fill-opacity="1" fill-rule="nonzero"/></svg>