<svg xmlns="http://www.w3.org/2000/svg" xmlns:xlink="http://www.w3.org/1999/xlink" width="500" zoomAndPan="magnify" viewBox="0 0 375 374.999991" height="500" preserveAspectRatio="xMidYMid meet" version="1.0"><defs><clipPath id="b1333cf644"><path d="M 90 5.078125 L 276 5.078125 L 276 369.578125 L 90 369.578125 Z M 90 5.078125 " clip-rule="nonzero"/></clipPath></defs><path fill="#4e7896" d="M 155.234375 198.378906 C 155.234375 198.378906 145.632812 204.226562 161.910156 205.894531 C 181.527344 208.398438 191.960938 207.984375 213.664062 203.808594 C 213.664062 203.808594 219.503906 207.566406 227.433594 210.488281 C 178.605469 231.363281 116.835938 209.234375 155.234375 198.378906 Z M 148.972656 171.242188 C 148.972656 171.242188 138.539062 179.175781 154.816406 180.847656 C 176.101562 182.933594 192.796875 183.351562 221.59375 177.507812 C 221.59375 177.507812 225.347656 181.679688 231.609375 183.769531 C 172.761719 201.304688 106.816406 185.4375 148.972656 171.246094 Z M 264.164062 218.832031 C 264.164062 218.832031 271.257812 224.679688 256.234375 229.269531 C 228.269531 237.621094 138.960938 240.125 113.917969 229.269531 C 105.152344 225.515625 121.847656 220.085938 127.269531 219.25 C 132.695312 218 135.617188 218 135.617188 218 C 126.019531 211.320312 71.761719 231.777344 108.074219 237.621094 C 207.820312 253.902344 290.039062 230.523438 264.164062 218.832031 Z M 159.828125 142.851562 C 159.828125 142.851562 114.335938 153.703125 143.550781 157.460938 C 156.074219 159.132812 180.695312 158.714844 203.648438 157.042969 C 222.429688 155.375 241.210938 152.035156 241.210938 152.035156 C 241.210938 152.035156 234.535156 154.957031 229.941406 157.878906 C 183.617188 169.984375 94.722656 164.558594 120.179688 152.035156 C 141.882812 141.597656 159.828125 142.847656 159.828125 142.847656 Z M 241.210938 188.355469 C 287.953125 164.140625 266.25 140.761719 251.226562 143.683594 C 247.46875 144.519531 245.800781 145.355469 245.800781 145.355469 C 245.800781 145.355469 247.054688 142.851562 249.972656 142.015625 C 279.605469 131.578125 302.976562 173.324219 240.375 189.609375 C 240.375 189.609375 240.792969 189.191406 241.210938 188.355469 Z M 164.417969 254.320312 C 209.492188 257.242188 278.347656 252.648438 280.027344 231.359375 C 280.027344 231.359375 276.6875 239.707031 242.882812 245.96875 C 204.484375 253.066406 156.910156 252.230469 128.953125 247.640625 C 128.953125 247.640625 134.796875 252.648438 164.429688 254.320312 Z M 164.417969 254.320312 " fill-opacity="1" fill-rule="nonzero"/><g clip-path="url(#b1333cf644)"><path fill="#f58219" d="M 212.828125 5.078125 C 212.828125 5.078125 238.703125 31.382812 188.203125 71.042969 C 147.722656 103.191406 179.023438 121.558594 188.203125 142.433594 C 164.414062 121.140625 147.304688 102.355469 158.988281 84.820312 C 176.101562 58.9375 223.265625 46.417969 212.832031 5.078125 Z M 199.480469 124.902344 C 211.582031 138.679688 196.140625 151.203125 196.140625 151.203125 C 196.140625 151.203125 227.023438 135.339844 212.835938 115.71875 C 199.898438 96.929688 189.878906 87.746094 244.136719 56.441406 C 244.136719 56.441406 158.582031 77.734375 199.480469 124.910156 Z M 168.589844 349.085938 L 168.589844 308.171875 C 168.589844 297.734375 162.746094 290.636719 148.140625 290.636719 C 139.792969 290.636719 132.699219 292.726562 126.4375 295.222656 L 128.527344 302.738281 C 133.109375 301.066406 138.960938 299.398438 145.21875 299.398438 C 153.148438 299.398438 156.90625 302.738281 156.90625 309.417969 L 156.90625 314.84375 L 152.730469 314.84375 C 132.699219 314.84375 123.515625 322.359375 123.515625 334.464844 C 123.515625 344.484375 129.777344 350.332031 141.046875 350.332031 C 148.140625 350.332031 153.566406 346.992188 158.574219 342.816406 L 159.410156 349.078125 L 168.59375 349.078125 Z M 156.902344 335.726562 C 152.730469 339.484375 148.140625 341.570312 143.964844 341.570312 C 138.539062 341.570312 135.203125 338.230469 135.203125 332.386719 C 135.203125 326.542969 138.542969 322.367188 151.894531 322.367188 L 156.90625 322.367188 L 156.90625 335.71875 Z M 207.820312 349.085938 L 193.214844 349.085938 L 175.6875 291.890625 L 188.207031 291.890625 L 199.058594 326.960938 L 201.5625 337.394531 C 206.988281 322.367188 211.164062 306.917969 212.832031 291.890625 L 225.351562 291.890625 C 222.011719 310.679688 216.171875 331.132812 207.824219 349.085938 Z M 275.433594 349.085938 L 275.433594 308.171875 C 275.433594 297.734375 269.589844 290.636719 254.980469 290.636719 C 246.632812 290.636719 239.539062 292.726562 233.277344 295.222656 L 234.949219 302.738281 C 239.957031 301.066406 245.800781 299.398438 252.0625 299.398438 C 259.992188 299.398438 263.746094 302.738281 263.746094 309.417969 L 263.746094 314.84375 L 259.574219 314.84375 C 239.539062 314.84375 230.359375 322.359375 230.359375 334.464844 C 230.359375 344.484375 236.203125 350.332031 247.46875 350.332031 C 254.980469 350.332031 260.40625 346.992188 265.414062 342.816406 L 266.25 349.078125 L 275.433594 349.078125 Z M 263.746094 335.726562 C 259.574219 339.484375 254.980469 341.570312 250.808594 341.570312 C 245.382812 341.570312 242.042969 338.230469 242.042969 332.386719 C 242.042969 326.542969 245.382812 322.367188 258.738281 322.367188 L 263.746094 322.367188 Z M 110.582031 358.691406 C 107.242188 363.699219 102.234375 367.457031 95.972656 369.542969 L 90.546875 362.867188 C 94.71875 360.363281 98.894531 356.605469 100.5625 353.265625 C 102.230469 350.34375 102.648438 346.167969 102.648438 336.566406 L 102.648438 271.4375 L 115.171875 271.4375 L 115.171875 335.730469 C 115.171875 348.671875 113.917969 353.683594 110.585938 358.695312 Z M 110.582031 358.691406 " fill-opacity="1" fill-rule="nonzero"/></g></svg>