<svg xmlns="http://www.w3.org/2000/svg" xmlns:xlink="http://www.w3.org/1999/xlink" width="500" zoomAndPan="magnify" viewBox="0 0 375 374.999991" height="500" preserveAspectRatio="xMidYMid meet" version="1.0"><defs><clipPath id="c1e5a3cc10"><path d="M 100.976562 151.140625 L 345 151.140625 L 345 351.515625 L 100.976562 351.515625 Z M 100.976562 151.140625 " clip-rule="nonzero"/></clipPath><clipPath id="9a56e63f81"><path d="M 106.976562 151.140625 L 338.726562 151.140625 C 340.316406 151.140625 341.84375 151.773438 342.96875 152.898438 C 344.09375 154.023438 344.726562 155.550781 344.726562 157.140625 L 344.726562 345.515625 C 344.726562 347.105469 344.09375 348.632812 342.96875 349.757812 C 341.84375 350.882812 340.316406 351.515625 338.726562 351.515625 L 106.976562 351.515625 C 105.382812 351.515625 103.859375 350.882812 102.734375 349.757812 C 101.609375 348.632812 100.976562 347.105469 100.976562 345.515625 L 100.976562 157.140625 C 100.976562 155.550781 101.609375 154.023438 102.734375 152.898438 C 103.859375 151.773438 105.382812 151.140625 106.976562 151.140625 Z M 106.976562 151.140625 " clip-rule="nonzero"/></clipPath><clipPath id="b04ae12141"><path d="M 10.039062 10.039062 L 364.789062 10.039062 L 364.789062 364.789062 L 10.039062 364.789062 Z M 10.039062 10.039062 " clip-rule="nonzero"/></clipPath></defs><g clip-path="url(#c1e5a3cc10)"><g clip-path="url(#9a56e63f81)"><path fill="#000000" d="M 100.976562 151.140625 L 344.398438 151.140625 L 344.398438 351.515625 L 100.976562 351.515625 Z M 100.976562 151.140625 " fill-opacity="1" fill-rule="nonzero"/></g></g><g clip-path="url(#b04ae12141)"><path fill="#eee400" d="M 281.917969 336.976562 C 250.972656 336.976562 230.957031 322.21875 221.199219 302.921875 L 248.339844 287.199219 C 255.492188 298.875 264.765625 307.441406 281.203125 307.441406 C 295.003906 307.441406 303.816406 300.535156 303.816406 291.007812 C 303.816406 276.683594 284.695312 271.070312 271.199219 265.296875 C 247.148438 255.058594 231.183594 242.195312 231.183594 215.042969 C 231.183594 190.046875 250.234375 171.003906 280.019531 171.003906 C 301.195312 171.003906 316.449219 178.382812 327.390625 197.660156 L 301.4375 214.332031 C 295.726562 204.09375 289.539062 200.050781 280.011719 200.050781 C 270.242188 200.050781 264.046875 206.242188 264.046875 214.332031 C 264.046875 224.335938 270.234375 228.378906 284.53125 234.574219 C 314.484375 247.410156 337.152344 257.503906 337.152344 290.53125 C 337.167969 320.550781 313.597656 336.976562 281.917969 336.976562 Z M 205.152344 286.730469 C 205.152344 321.261719 183.882812 339.515625 154.351562 339.515625 C 127.675781 339.515625 111.695312 329.3125 103.835938 311.578125 L 103.375 311.578125 L 130.492188 292.617188 C 135.726562 301.890625 140.445312 308.476562 151.867188 308.476562 C 162.832031 308.476562 169.675781 302.929688 169.675781 286.269531 L 169.675781 169.675781 L 205.152344 169.675781 Z M 10.039062 364.789062 L 364.789062 364.789062 L 364.789062 10.039062 L 10.039062 10.039062 Z M 10.039062 364.789062 " fill-opacity="1" fill-rule="evenodd"/></g></svg>