<svg xmlns="http://www.w3.org/2000/svg" xmlns:xlink="http://www.w3.org/1999/xlink" width="500" zoomAndPan="magnify" viewBox="0 0 375 374.999991" height="500" preserveAspectRatio="xMidYMid meet" version="1.0"><defs><g/></defs><rect x="-37.5" width="450" fill="#ffffff" y="-37.499999" height="449.999989" fill-opacity="1"/><rect x="-37.5" width="450" fill="#ffffff" y="-37.499999" height="449.999989" fill-opacity="1"/><path fill="#10458d" d="M 60.554688 218.523438 L 271.632812 119.914062 C 287.445312 112.527344 305.546875 111.722656 321.953125 117.679688 C 338.359375 123.640625 351.726562 135.871094 359.117188 151.6875 C 366.503906 167.5 367.308594 185.601562 361.347656 202.007812 C 355.390625 218.414062 343.160156 231.78125 327.34375 239.167969 L 116.265625 337.78125 C 83.335938 353.164062 44.167969 338.941406 28.78125 306.007812 C 13.398438 273.078125 27.621094 233.910156 60.554688 218.523438 Z M 60.554688 218.523438 " fill-opacity="1" fill-rule="nonzero"/><g fill="#ffffff" fill-opacity="1"><g transform="translate(60.456077, 329.402363)"><g><path d="M -4.046875 -61.90625 L -23.625 -52.75 L -27 -59.984375 L 24.09375 -83.859375 L 26.1875 -76.015625 L 7.875 -67.46875 L 32.34375 -15.109375 L 20.421875 -9.546875 Z M -4.046875 -61.90625 "/></g></g></g><g fill="#ffffff" fill-opacity="1"><g transform="translate(113.24012, 304.74315)"><g><path d="M 32.296875 -13.015625 C 28.546875 -11.265625 24.859375 -10.269531 21.234375 -10.03125 C 17.617188 -9.789062 14.207031 -10.21875 11 -11.3125 C 7.789062 -12.40625 4.894531 -14.128906 2.3125 -16.484375 C -0.269531 -18.835938 -2.359375 -21.71875 -3.953125 -25.125 L -21.453125 -62.578125 L -9.546875 -68.140625 L 7.953125 -30.6875 C 9.148438 -28.125 10.632812 -25.976562 12.40625 -24.25 C 14.1875 -22.519531 16.117188 -21.242188 18.203125 -20.421875 C 20.285156 -19.597656 22.4375 -19.207031 24.65625 -19.25 C 26.882812 -19.289062 29.082031 -19.816406 31.25 -20.828125 C 33.34375 -21.804688 35.132812 -23.144531 36.625 -24.84375 C 38.113281 -26.539062 39.207031 -28.445312 39.90625 -30.5625 C 40.613281 -32.6875 40.875 -34.984375 40.6875 -37.453125 C 40.5 -39.929688 39.804688 -42.453125 38.609375 -45.015625 L 21.109375 -82.46875 L 28.765625 -86.046875 L 46.265625 -48.59375 C 47.859375 -45.1875 48.726562 -41.734375 48.875 -38.234375 C 49.019531 -34.734375 48.484375 -31.40625 47.265625 -28.25 C 46.046875 -25.09375 44.179688 -22.203125 41.671875 -19.578125 C 39.171875 -16.953125 36.046875 -14.765625 32.296875 -13.015625 Z M 32.296875 -13.015625 "/></g></g></g><g fill="#ffffff" fill-opacity="1"><g transform="translate(176.240429, 275.311187)"><g><path d="M -21.453125 -62.578125 L -10.8125 -67.546875 L 41.625 -39.671875 L 42.046875 -39.875 L 21.953125 -82.859375 L 29.609375 -86.4375 L 57.453125 -26.84375 L 46.828125 -21.875 L -5.609375 -49.765625 L -6.03125 -49.5625 L 14.046875 -6.5625 L 6.390625 -2.984375 Z M -21.453125 -62.578125 "/></g></g></g><g fill="#ffffff" fill-opacity="1"><g transform="translate(240.092096, 245.481494)"><g><path d="M -21.453125 -62.578125 L 22.8125 -83.25 L 24.90625 -75.421875 L -6.171875 -60.90625 L 2.1875 -43.03125 L 25.1875 -53.78125 L 27.296875 -45.9375 L 5.578125 -35.78125 L 14.921875 -15.78125 L 48.5625 -31.5 L 51.9375 -24.265625 L 6.390625 -2.984375 Z M -21.453125 -62.578125 "/></g></g></g><g fill="#ffffff" fill-opacity="1"><g transform="translate(294.153171, 220.225688)"><g><path d="M -21.453125 -62.578125 L -1.875 -71.71875 C 3.125 -74.0625 8.03125 -75.40625 12.84375 -75.75 C 17.65625 -76.09375 22.128906 -75.609375 26.265625 -74.296875 C 30.410156 -72.992188 34.125 -70.894531 37.40625 -68 C 40.695312 -65.101562 43.3125 -61.582031 45.25 -57.4375 C 47.1875 -53.289062 48.207031 -49.03125 48.3125 -44.65625 C 48.425781 -40.289062 47.65625 -36.097656 46 -32.078125 C 44.351562 -28.054688 41.851562 -24.3125 38.5 -20.84375 C 35.144531 -17.375 30.96875 -14.46875 25.96875 -12.125 L 6.390625 -2.984375 Z M 22.59375 -19.359375 C 25.488281 -20.710938 27.914062 -22.503906 29.875 -24.734375 C 31.84375 -26.972656 33.289062 -29.5 34.21875 -32.3125 C 35.144531 -35.132812 35.484375 -38.179688 35.234375 -41.453125 C 34.992188 -44.722656 34.078125 -48.0625 32.484375 -51.46875 C 30.890625 -54.875 28.914062 -57.722656 26.5625 -60.015625 C 24.21875 -62.304688 21.664062 -64 18.90625 -65.09375 C 16.144531 -66.195312 13.273438 -66.707031 10.296875 -66.625 C 7.328125 -66.550781 4.394531 -65.835938 1.5 -64.484375 L -6.171875 -60.90625 L 14.921875 -15.78125 Z M 22.59375 -19.359375 "/></g></g></g><path fill="#ff9629" d="M 53.398438 96.074219 L 182.320312 35.84375 C 198.589844 28.246094 217.207031 27.417969 234.082031 33.546875 C 250.957031 39.675781 264.707031 52.257812 272.304688 68.523438 C 279.902344 84.789062 280.730469 103.40625 274.601562 120.28125 C 268.472656 137.15625 255.890625 150.90625 239.625 158.507812 L 110.703125 218.734375 C 76.832031 234.558594 36.542969 219.929688 20.71875 186.054688 C 4.898438 152.183594 19.527344 111.898438 53.398438 96.074219 Z M 53.398438 96.074219 " fill-opacity="1" fill-rule="nonzero"/><g fill="#ffffff" fill-opacity="1"><g transform="translate(55.801042, 207.859183)"><g><path d="M 27.1875 -10.625 C 22.757812 -8.550781 18.664062 -7.46875 14.90625 -7.375 C 11.15625 -7.28125 7.867188 -7.582031 5.046875 -8.28125 C 1.765625 -9.09375 -1.28125 -10.363281 -4.09375 -12.09375 L -2.046875 -17.71875 C 0.265625 -16.4375 2.734375 -15.515625 5.359375 -14.953125 C 7.609375 -14.410156 10.179688 -14.175781 13.078125 -14.25 C 15.984375 -14.332031 19.054688 -15.128906 22.296875 -16.640625 C 26.554688 -18.628906 29.320312 -21.21875 30.59375 -24.40625 C 31.863281 -27.601562 31.707031 -30.90625 30.125 -34.3125 C 29.300781 -36.0625 27.800781 -37.148438 25.625 -37.578125 C 23.457031 -38.015625 20.910156 -38.175781 17.984375 -38.0625 C 15.066406 -37.945312 11.953125 -37.773438 8.640625 -37.546875 C 5.328125 -37.316406 2.097656 -37.394531 -1.046875 -37.78125 C -4.203125 -38.175781 -7.09375 -39.070312 -9.71875 -40.46875 C -12.351562 -41.875 -14.4375 -44.21875 -15.96875 -47.5 C -16.925781 -49.550781 -17.359375 -51.773438 -17.265625 -54.171875 C -17.179688 -56.566406 -16.550781 -58.953125 -15.375 -61.328125 C -14.207031 -63.710938 -12.460938 -66.015625 -10.140625 -68.234375 C -7.828125 -70.453125 -4.914062 -72.378906 -1.40625 -74.015625 C 2.34375 -75.765625 5.898438 -76.703125 9.265625 -76.828125 C 12.640625 -76.953125 15.601562 -76.707031 18.15625 -76.09375 C 21.175781 -75.4375 23.96875 -74.425781 26.53125 -73.0625 L 24.3125 -67.890625 C 22.195312 -68.691406 19.953125 -69.265625 17.578125 -69.609375 C 15.554688 -69.921875 13.3125 -70.015625 10.84375 -69.890625 C 8.382812 -69.773438 5.9375 -69.148438 3.5 -68.015625 C 0.09375 -66.421875 -2.171875 -64.238281 -3.296875 -61.46875 C -4.429688 -58.695312 -4.398438 -56.03125 -3.203125 -53.46875 C -2.328125 -51.601562 -0.800781 -50.453125 1.375 -50.015625 C 3.550781 -49.578125 6.101562 -49.40625 9.03125 -49.5 C 11.957031 -49.59375 15.066406 -49.78125 18.359375 -50.0625 C 21.648438 -50.34375 24.863281 -50.304688 28 -49.953125 C 31.144531 -49.597656 34.035156 -48.703125 36.671875 -47.265625 C 39.304688 -45.835938 41.382812 -43.503906 42.90625 -40.265625 C 43.988281 -37.929688 44.507812 -35.40625 44.46875 -32.6875 C 44.425781 -29.976562 43.75 -27.28125 42.4375 -24.59375 C 41.132812 -21.914062 39.21875 -19.363281 36.6875 -16.9375 C 34.15625 -14.507812 30.988281 -12.40625 27.1875 -10.625 Z M 27.1875 -10.625 "/></g></g></g><g fill="#ffffff" fill-opacity="1"><g transform="translate(109.436433, 182.802245)"><g><path d="M -4.046875 -61.90625 L -23.625 -52.75 L -27 -59.984375 L 24.09375 -83.859375 L 26.1875 -76.015625 L 7.875 -67.46875 L 32.34375 -15.109375 L 20.421875 -9.546875 Z M -4.046875 -61.90625 "/></g></g></g><g fill="#ffffff" fill-opacity="1"><g transform="translate(156.260595, 160.92732)"><g><path d="M -2.3125 -71.53125 L 7.921875 -76.296875 L 59.59375 -27.84375 L 46.828125 -21.875 L 34.9375 -32.921875 L 8.53125 -20.578125 L 9.375 -4.375 L 0.84375 -0.390625 Z M 29 -38.953125 L 6.859375 -59.734375 L 6.421875 -59.53125 L 8.140625 -29.21875 Z M 29 -38.953125 "/></g></g></g><g fill="#ffffff" fill-opacity="1"><g transform="translate(210.746949, 135.472836)"><g><path d="M 13 -29.921875 L -27.84375 -59.59375 L -14.21875 -65.953125 L 16.6875 -43.078125 L 17.125 -43.265625 L 19.40625 -81.671875 L 27.921875 -85.640625 L 24.921875 -35.484375 L 34.0625 -15.90625 L 22.140625 -10.34375 Z M 13 -29.921875 "/></g></g></g><path stroke-linecap="butt" transform="matrix(0.679384, -0.322896, 0.322896, 0.679384, 27.675371, 197.351663)" fill="none" stroke-linejoin="miter" d="M 0.00174358 2.501797 L 364.417151 2.502099 " stroke="#ff9629" stroke-width="5" stroke-opacity="1" stroke-miterlimit="4"/><path stroke-linecap="butt" transform="matrix(0.679631, -0.322377, 0.322377, 0.679631, 28.235415, 306.342724)" fill="none" stroke-linejoin="miter" d="M 0.00127055 2.502322 L 485.182059 2.497726 " stroke="#10458d" stroke-width="5" stroke-opacity="1" stroke-miterlimit="4"/></svg>